<?xml version="1.0" encoding="UTF-8" standalone="no"?>
<!DOCTYPE svg PUBLIC "-//W3C//DTD SVG 1.1//EN" "http://www.w3.org/Graphics/SVG/1.1/DTD/svg11.dtd">
<svg version="1.1" xmlns="http://www.w3.org/2000/svg" xmlns:xlink="http://www.w3.org/1999/xlink" preserveAspectRatio="xMidYMid meet" viewBox="0 0 642 280" width="642" height="280"><defs><path d="M153.45 90.47L161.15 90.47L179.06 134.31L171.92 134.31L166.85 121.47L147.24 121.47L142.11 134.31L135.29 134.31L153.45 90.47ZM164.72 116.02L157.08 96.8L149.44 116.02L164.72 116.02Z" id="ffFGjZwq6"></path><path d="M205.55 131.3C202.81 133.59 199.34 134.83 195.77 134.81C186.74 134.81 179.68 127.58 179.68 118.34C179.68 109.1 186.76 101.93 195.9 101.93C199.36 101.93 202.72 103.04 205.51 105.08C205.51 104.11 205.51 99.24 205.51 90.47L211.77 89.1L211.77 134.31L205.55 134.31C205.55 132.7 205.55 131.7 205.55 131.3ZM205.51 125.55C205.51 124.11 205.51 112.55 205.51 111.1C203.24 108.64 200.03 107.27 196.68 107.35C190.55 107.35 185.84 112.04 185.84 118.3C185.84 124.57 190.52 129.36 196.65 129.36C200.02 129.45 203.26 128.06 205.51 125.55Z" id="e554g3sJuj"></path><path d="M215.62 102.43L222.51 102.43L232.47 126.29L242.42 102.43L249.13 102.43L235.35 134.31L229.4 134.31L215.62 102.43Z" id="b167mnrDp"></path><path d="M264.28 115.46C267.27 115.46 270.23 116.05 272.98 117.21C272.98 116.88 272.98 114.17 272.98 113.83C272.98 109.32 270.29 107.07 265.22 107.07C262.27 107.07 259.27 107.88 255.32 109.76C255.09 109.29 253.24 105.53 253.01 105.06C257.77 102.81 261.9 101.81 266.09 101.81C274.36 101.81 279.12 105.88 279.12 113.2C279.12 114.61 279.12 121.63 279.12 134.28L272.98 134.28C272.98 132.66 272.98 131.75 272.98 131.57C270.18 133.82 266.67 135 263.09 134.89C256.14 134.87 251.38 130.92 251.38 125.16C251.38 119.14 256.26 115.46 264.28 115.46ZM272.94 127.23C272.94 126.67 272.94 122.26 272.94 121.71C270.42 120.37 267.6 119.7 264.74 119.77C260.17 119.77 257.36 121.84 257.36 125.03C257.39 128.11 260.3 130.24 264.51 130.24C267.6 130.33 270.61 129.26 272.94 127.23Z" id="cluGz7CdC"></path><path d="M286.32 102.43L292.58 102.43C292.58 104.35 292.58 105.41 292.58 105.62C295.12 103.1 298.58 101.72 302.16 101.81C309.49 101.81 314.62 106.88 314.62 114.27C314.62 115.61 314.62 122.28 314.62 134.31L308.36 134.31C308.36 122.91 308.36 116.58 308.36 115.32C308.36 110.31 305.29 107.24 300.47 107.24C297.3 107.13 294.3 108.7 292.58 111.37C292.58 112.9 292.58 120.54 292.58 134.29L286.32 134.29L286.32 102.43Z" id="aU6ggiW3t"></path><path d="M349.37 129.54C346.07 132.94 341.53 134.86 336.79 134.87C327.66 134.69 320.4 127.15 320.58 118.02C320.74 109.14 327.91 101.98 336.79 101.81C341.61 101.8 346.23 103.71 349.63 107.13C349.23 107.55 346.08 110.96 345.68 111.39C343.46 108.87 340.27 107.41 336.92 107.38C331.09 107.38 326.58 112.2 326.58 118.34C326.58 124.6 331.15 129.36 337.04 129.36C340.23 129.36 343.05 128.11 345.62 125.47C346.37 126.29 349 129.14 349.37 129.54Z" id="a2WRH1XVFJ"></path><path d="M351.75 118.34C351.75 109.13 358.77 101.93 367.72 101.93C376.49 101.93 383.13 109.19 383.13 118.59C383.13 118.71 383.13 119.31 383.13 120.39C368.02 120.39 359.63 120.39 357.95 120.39C358.76 125.7 363.36 129.6 368.73 129.53C371.66 129.6 374.52 128.61 376.8 126.76C377.2 127.15 380.41 130.31 380.81 130.71C377.32 133.5 372.95 134.98 368.47 134.87C359.08 134.87 351.75 127.64 351.75 118.34ZM376.93 115.71C375.99 110.83 372.23 107.19 367.6 107.19C362.78 107.19 358.95 110.64 358.01 115.71C361.8 115.71 375.04 115.71 376.93 115.71Z" id="cZHbsq3br"></path><path d="M413.62 131.3C410.89 133.59 407.42 134.83 403.85 134.81C394.82 134.81 387.76 127.58 387.76 118.34C387.76 109.1 394.84 101.93 403.98 101.93C407.42 101.93 410.78 103.03 413.56 105.06C413.56 104.09 413.56 99.23 413.56 90.47L419.82 89.1L419.82 134.31L413.62 134.31C413.62 132.7 413.62 131.7 413.62 131.3ZM413.56 125.55C413.56 124.11 413.56 112.55 413.56 111.1C411.29 108.64 408.08 107.27 404.73 107.35C398.6 107.35 393.89 112.04 393.89 118.3C393.89 124.57 398.6 129.36 404.73 129.36C408.09 129.44 411.31 128.05 413.56 125.55Z" id="c59BQl4MQ"></path><path d="M479.69 127.42C475.13 132.25 468.79 134.99 462.15 134.99C449.19 134.99 439.17 125.04 439.17 112.39C439.17 99.74 449.19 89.78 462.15 89.78C469.04 89.78 475.68 92.67 479.81 97.36C479.37 97.81 475.86 101.42 475.42 101.87C472.1 98.02 467.26 95.82 462.18 95.85C452.91 95.85 445.92 102.99 445.92 112.38C445.92 121.77 453 128.91 462.39 128.91C467.37 128.94 472.11 126.8 475.36 123.04C476.23 123.91 479.25 126.98 479.69 127.42Z" id="ic98KlEGv"></path><path d="M491.64 134.31L485.38 134.31L485.38 90.47L491.64 89.1L491.64 134.31Z" id="c3rDYqlC2T"></path><path d="M505.17 121.34C505.17 126.35 508.24 129.48 513.05 129.48C516.23 129.56 519.2 127.96 520.88 125.26C520.88 123.74 520.88 116.11 520.88 102.38L527.15 102.38L527.15 134.26L520.88 134.26C520.88 132.34 520.88 131.27 520.88 131.06C518.35 133.6 514.89 134.98 511.3 134.89C503.98 134.89 498.91 129.75 498.91 122.36C498.91 121.03 498.91 114.39 498.91 102.43L505.17 102.43C505.17 112.52 505.17 118.82 505.17 121.34Z" id="aBGCWvyKO"></path><path d="M534.91 126.04C538.23 128.67 541.73 130.05 545.3 130.05C549.81 130.05 552.94 128.11 552.94 125.29C552.94 123.04 551.32 121.72 547.81 121.22C547.24 121.14 542.65 120.49 542.08 120.4C535.75 119.47 532.56 116.52 532.56 111.58C532.56 105.82 537.57 101.94 545.02 101.94C549.62 101.91 554.11 103.34 557.86 106.01C557.54 106.43 554.98 109.73 554.67 110.14C551.16 107.83 547.96 106.83 544.59 106.83C540.76 106.83 538.2 108.58 538.2 111.15C538.2 113.47 539.7 114.59 543.45 115.15C544.03 115.24 548.64 115.89 549.22 115.97C555.54 116.91 558.85 119.92 558.85 124.86C558.85 130.56 553.09 134.88 545.51 134.88C540 134.88 535.06 133.25 531.55 130.18C532.22 129.35 534.24 126.87 534.91 126.04Z" id="c64YtJA9yC"></path><path d="M567.16 107.69L560.4 107.69L560.4 102.43L567.16 102.43L567.16 94.29L573.36 92.79L573.36 102.42L582.75 102.42L582.75 107.68L573.39 107.68C573.39 118.04 573.39 123.8 573.39 124.95C573.39 128.21 574.7 129.4 578.09 129.4C579.64 129.44 581.19 129.18 582.66 128.65C582.66 129.17 582.66 133.38 582.66 133.9C580.73 134.51 578.73 134.82 576.71 134.84C570.51 134.84 567.19 131.9 567.19 126.41C567.19 123.92 567.18 117.68 567.16 107.69Z" id="cvItR63"></path><path d="M585.25 118.34C585.25 109.13 592.27 101.93 601.23 101.93C609.99 101.93 616.63 109.19 616.63 118.59C616.63 118.71 616.63 119.31 616.63 120.39C601.52 120.39 593.13 120.39 591.45 120.39C592.26 125.7 596.86 129.6 602.23 129.53C605.17 129.58 608.03 128.58 610.31 126.71C610.71 127.11 613.91 130.27 614.31 130.66C610.82 133.48 606.45 134.96 601.97 134.87C592.58 134.87 585.25 127.64 585.25 118.34ZM610.43 115.71C609.49 110.83 605.73 107.19 601.1 107.19C596.27 107.19 592.46 110.64 591.52 115.71C595.3 115.71 608.54 115.71 610.43 115.71Z" id="b19jCMUKZf"></path><path d="M622.58 102.43L628.84 102.43C628.84 104.87 628.84 106.23 628.84 106.5C630.7 103.46 634.04 101.65 637.6 101.75C638.69 101.69 639.78 101.86 640.8 102.25C640.8 102.81 640.8 107.32 640.8 107.88C639.62 107.43 638.37 107.2 637.1 107.19C633.41 107.19 630.48 109.19 628.84 113.02C628.84 114.44 628.84 121.53 628.84 134.31L622.58 134.31L622.58 102.43Z" id="i2fLbStUT"></path><path d="M139.73 187.44C144.49 192.07 149.36 194.32 154.82 194.32C161.15 194.32 165.47 191.31 165.47 187C165.47 183.11 162.96 181.17 156.58 180.11C155.84 179.99 149.98 179.02 149.25 178.9C141.24 177.59 137.29 173.83 137.29 167.51C137.29 159.87 143.67 154.92 153.45 154.92C159.82 154.94 166.02 157.03 171.11 160.87C170.74 161.37 167.85 165.38 167.49 165.88C162.73 162.27 158.03 160.5 153.15 160.5C147.45 160.5 143.63 163.12 143.63 167.01C143.63 170.58 145.82 172.27 151.46 173.21C152.17 173.32 157.84 174.21 158.55 174.32C167.82 175.83 172.01 179.65 172.01 186.47C172.01 194.55 165 199.94 154.55 199.94C147.48 199.93 140.71 197.08 135.76 192.04C136.56 191.12 138.94 188.36 139.73 187.44Z" id="f4HxK07QgS"></path><path d="M176.49 183.37C176.49 174.16 183.5 166.96 192.46 166.96C201.22 166.96 207.86 174.22 207.86 183.61C207.86 183.73 207.86 184.34 207.86 185.42C192.76 185.42 184.37 185.42 182.69 185.42C183.48 190.74 188.09 194.65 193.47 194.57C196.4 194.63 199.26 193.64 201.54 191.78C201.94 192.18 205.14 195.34 205.55 195.73C202.05 198.53 197.68 200 193.21 199.89C183.82 199.89 176.49 192.67 176.49 183.37ZM201.66 180.73C200.72 175.85 196.97 172.22 192.33 172.22C187.51 172.22 183.69 175.67 182.75 180.73C186.53 180.73 199.77 180.73 201.66 180.73Z" id="a3wv4pOVr"></path><path d="M241.48 194.57C238.18 197.97 233.64 199.89 228.9 199.89C219.77 199.72 212.51 192.18 212.69 183.05C212.86 174.16 220.02 167 228.9 166.83C233.72 166.82 238.34 168.74 241.74 172.16C241.34 172.58 238.19 175.99 237.79 176.41C235.57 173.9 232.38 172.44 229.03 172.41C223.2 172.41 218.69 177.22 218.69 183.37C218.69 189.63 223.26 194.38 229.15 194.38C232.34 194.38 235.16 193.13 237.73 190.5C238.48 191.32 241.11 194.16 241.48 194.57Z" id="bPZwqOB6s"></path><path d="M252.7 186.36C252.7 191.37 255.76 194.5 260.58 194.5C263.75 194.59 266.73 192.98 268.41 190.29C268.41 188.76 268.41 181.14 268.41 167.41L274.67 167.41L274.67 199.29L268.41 199.29C268.41 197.37 268.41 196.3 268.41 196.09C265.88 198.63 262.41 200.01 258.83 199.91C251.5 199.91 246.43 194.78 246.43 187.39C246.43 186.06 246.43 179.42 246.43 167.46L252.7 167.46C252.7 177.54 252.7 183.84 252.7 186.36Z" id="a5uzK3FPi"></path><path d="M282.06 167.46L288.32 167.46C288.32 169.9 288.32 171.26 288.32 171.53C290.18 168.49 293.53 166.68 297.09 166.77C298.18 166.72 299.27 166.89 300.29 167.27C300.29 167.84 300.29 172.34 300.29 172.91C299.1 172.46 297.85 172.23 296.59 172.22C292.89 172.22 289.97 174.22 288.32 178.04C288.32 179.46 288.32 186.56 288.32 199.33L282.06 199.33L282.06 167.46Z" id="e1HTUnUNp"></path><path d="M308.42 154.56C308.42 154.56 308.42 154.56 308.42 154.56C310.56 154.48 312.37 156.15 312.45 158.29C312.54 160.43 310.87 162.24 308.73 162.32C308.62 162.33 308.52 162.33 308.42 162.32C306.29 162.31 304.59 160.57 304.6 158.45C304.6 158.44 304.6 158.44 304.6 158.44C304.59 156.31 306.29 154.58 308.42 154.56ZM311.55 199.33L305.29 199.33L305.29 167.46L311.55 167.46L311.55 199.33Z" id="b3GbegyIX4"></path><path d="M323.07 172.72L316.3 172.72L316.3 167.46L323.06 167.46L323.06 159.32L329.25 157.81L329.25 167.45L338.64 167.45L338.64 172.71L329.25 172.71C329.25 183.07 329.25 188.83 329.25 189.98C329.25 193.23 330.57 194.43 333.95 194.43C335.51 194.47 337.06 194.21 338.52 193.67C338.52 194.2 338.52 198.4 338.52 198.93C336.6 199.53 334.59 199.85 332.58 199.87C326.37 199.87 323.06 196.93 323.06 191.44C323.06 188.94 323.07 182.7 323.07 172.72Z" id="aV4WR1Bbb"></path><path d="M353.13 199.46L340.42 167.46L347.31 167.46L356.64 191.82L366.91 167.46L373.67 167.46C364.43 188.87 359.29 200.77 358.27 203.15C355.32 209.98 351.94 212.67 346.06 212.67C344.94 212.7 343.82 212.57 342.73 212.3C342.73 211.75 342.73 207.34 342.73 206.79C343.66 206.98 344.61 207.06 345.55 207.03C348.44 207.03 350.5 205.53 351.88 202.34C352.05 201.95 352.46 201 353.13 199.46Z" id="a7jFWJrNV"></path><path d="M143.67 232.98C143.67 229.42 143.67 227.43 143.67 227.04C143.67 220.9 147.12 217.52 153.39 217.52C154.81 217.46 156.24 217.65 157.6 218.08C157.6 218.5 157.6 221.8 157.6 222.21C156.35 221.8 155.04 221.6 153.72 221.61C150.03 221.61 148.3 223.37 148.3 227.19C148.3 227.57 148.3 229.52 148.3 233.01L157.63 233.01L157.63 236.94L148.25 236.94L148.25 264.37L143.67 264.37L143.67 236.94L136.27 236.94L136.27 233L143.67 232.98Z" id="az1Caf5YW"></path><path d="M191.52 248.62C191.52 257.73 184.44 264.99 175.55 264.99C166.66 264.99 159.52 257.85 159.52 248.64C159.52 239.43 166.6 232.36 175.55 232.36C184.44 232.36 191.52 239.5 191.52 248.62ZM175.55 236.47C169.16 236.47 164.11 241.79 164.11 248.62C164.11 255.44 169.12 260.83 175.55 260.83C181.98 260.83 186.95 255.47 186.95 248.64C186.95 241.79 181.94 236.47 175.55 236.47Z" id="a1F2xfNijO"></path><path d="M197.96 232.98L202.6 232.98C202.6 235.65 202.6 237.14 202.6 237.43C204.34 234.22 207.72 232.24 211.37 232.3C212.37 232.27 213.36 232.42 214.31 232.74C214.31 233.16 214.31 236.57 214.31 236.99C213.26 236.63 212.16 236.44 211.05 236.43C207.17 236.43 204.23 238.69 202.63 242.88C202.63 244.32 202.63 251.47 202.63 264.36L197.99 264.36L197.96 232.98Z" id="b9q6Vm1hn2"></path><path d="M233.97 220.53L238.79 220.53L238.79 241.32L261.46 220.53L267.78 220.53L243.98 242L268.28 264.36L261.5 264.36L238.78 243.29L238.78 264.36L233.96 264.36L233.97 220.53Z" id="i2dvSSsrh"></path><path d="M274.55 251.9C274.55 257.47 277.93 260.93 283.31 260.93C286.87 261.01 290.19 259.14 291.96 256.05C291.96 254.51 291.96 246.82 291.96 232.98L296.59 232.98L296.59 264.36L291.96 264.36C291.96 262.19 291.96 260.99 291.96 260.75C289.51 263.57 286.2 265 282.13 265C274.9 265 269.98 260.06 269.98 252.85C269.98 251.53 269.98 244.91 269.98 232.98L274.55 232.98C274.55 243.07 274.55 249.38 274.55 251.9Z" id="a2Dm0dhInM"></path><path d="M309.05 261.25C309.05 261.46 309.05 262.5 309.05 264.38L304.48 264.38L304.48 220.55L309.11 219.48C309.11 229.6 309.11 235.21 309.11 236.34C311.85 233.8 315.47 232.43 319.2 232.52C328.08 232.52 334.98 239.6 334.98 248.68C334.98 257.76 328.08 264.86 319.13 264.86C315.45 264.86 311.89 263.58 309.05 261.25ZM309.11 256.47C311.52 259.27 315.05 260.86 318.75 260.79C325.37 260.79 330.39 255.59 330.39 248.71C330.39 241.82 325.32 236.56 318.75 236.56C315.03 236.47 311.49 238.08 309.11 240.94C309.11 244.04 309.11 254.91 309.11 256.47Z" id="b3vkHmROx"></path><path d="M340.05 249.11C340.04 248.96 340.05 248.81 340.05 248.66C340.05 239.63 346.87 232.51 355.51 232.51C363.84 232.51 370.35 239.65 370.35 248.66C370.35 248.76 370.35 249.24 370.35 250.11C354.9 250.11 346.31 250.11 344.59 250.11C345.28 256.3 350.16 260.87 356.36 260.87C359.62 260.87 362.88 259.81 365 258C365.29 258.3 367.6 260.76 367.89 261.07C364.54 263.64 360.42 265 356.2 264.92C347.37 265.01 340.14 257.93 340.05 249.11ZM365.74 246.39C364.93 240.81 360.6 236.56 355.41 236.56C349.94 236.56 345.62 240.63 344.74 246.39C344.75 246.39 363.64 246.39 365.74 246.39Z" id="a3Cl5yq9Nk"></path><path d="M376.8 232.98L381.44 232.98C381.44 235.65 381.44 237.14 381.44 237.43C383.17 234.22 386.55 232.24 390.2 232.3C391.2 232.27 392.2 232.42 393.15 232.74C393.15 233.16 393.15 236.57 393.15 236.99C392.1 236.63 391 236.44 389.89 236.43C386.01 236.43 383.06 238.69 381.46 242.88C381.46 244.32 381.46 251.47 381.46 264.36L376.82 264.36L376.8 232.98Z" id="bLu7yFrmf"></path><path d="M398.47 232.98L403.1 232.98C403.1 235.2 403.1 236.44 403.1 236.68C405.54 233.8 408.93 232.36 413 232.36C420.13 232.36 425.08 237.31 425.08 244.51C425.08 245.83 425.08 252.46 425.08 264.38L420.51 264.38C420.51 253.02 420.51 246.71 420.51 245.45C420.51 239.87 417.13 236.42 411.75 236.42C408.2 236.33 404.89 238.18 403.1 241.23C403.1 242.77 403.1 250.48 403.1 264.34L398.47 264.34L398.47 232.98Z" id="b1WjpnmXI4"></path><path d="M431.4 249.11C431.4 248.96 431.4 248.81 431.4 248.66C431.4 239.63 438.23 232.51 446.87 232.51C455.19 232.51 461.71 239.65 461.71 248.66C461.71 248.76 461.71 249.24 461.71 250.11C446.27 250.11 437.69 250.11 435.97 250.11C436.67 256.3 441.55 260.87 447.75 260.87C451 260.87 454.26 259.81 456.39 258C456.68 258.3 458.98 260.76 459.27 261.07C455.92 263.65 451.78 265.01 447.55 264.92C438.72 265.01 431.49 257.93 431.4 249.11ZM457.09 246.39C456.28 240.81 451.95 236.56 446.76 236.56C441.3 236.56 436.98 240.63 436.11 246.39C440.31 246.39 454.99 246.39 457.09 246.39Z" id="g4BM63AGvh"></path><path d="M470.79 236.94L464.03 236.94L464.03 233L470.79 233L470.79 225.03L475.36 223.83L475.36 232.97L484.82 232.97L484.82 236.94L475.36 236.94C475.36 248.48 475.36 254.88 475.36 256.17C475.36 259.55 476.74 260.86 480.18 260.86C481.74 260.91 483.3 260.64 484.75 260.05C484.75 260.46 484.75 263.71 484.75 264.12C482.97 264.68 481.11 264.95 479.24 264.93C473.82 264.93 470.81 262.31 470.81 257.36C470.81 254.64 470.8 247.83 470.79 236.94Z" id="a1t0BgWgyw"></path><path d="M487.32 249.11C487.32 248.96 487.32 248.81 487.32 248.66C487.32 239.63 494.15 232.51 502.79 232.51C511.12 232.51 517.63 239.65 517.63 248.66C517.63 248.76 517.63 249.24 517.63 250.11C502.19 250.11 493.61 250.11 491.89 250.11C492.58 256.3 497.47 260.87 503.67 260.87C506.93 260.87 510.18 259.81 512.31 258C512.6 258.3 514.9 260.76 515.19 261.07C511.84 263.64 507.71 265 503.48 264.92C494.65 265.02 487.42 257.94 487.32 249.11ZM513.02 246.39C512.21 240.81 507.89 236.56 502.69 236.56C497.22 236.56 492.9 240.63 492.02 246.39C492.02 246.39 510.92 246.39 513.02 246.39Z" id="d11cff5nu"></path><path d="M524.02 257.03C526.77 259.69 530.43 261.2 534.25 261.25C539.26 261.25 542.77 258.93 542.77 255.61C542.77 252.92 540.96 251.4 536.95 250.85C536.4 250.77 532.07 250.18 531.53 250.1C525.27 249.16 522.26 246.41 522.26 241.67C522.26 236.41 527.14 232.53 534.03 232.53C538.46 232.5 542.77 233.94 546.3 236.62C546.06 236.93 544.13 239.44 543.89 239.75C540.38 237.34 537.19 236.24 533.75 236.24C529.43 236.24 526.48 238.37 526.48 241.44C526.48 244.14 528.17 245.45 532.3 246.07C532.85 246.15 537.18 246.75 537.72 246.83C543.98 247.7 547.12 250.52 547.12 255.34C547.12 260.79 541.61 264.92 534.41 264.92C529.21 264.92 524.51 263.17 521.2 260.04C521.76 259.44 523.45 257.63 524.02 257.03Z" id="cjTjFwxtT"></path><path d="M78.47 53.05C86 53.05 96.9 51.5 96.9 42.54C96.92 41.85 96.86 41.16 96.71 40.48C96.26 38.53 92.67 22.95 92.22 21C91.19 16.71 90.28 14.77 82.75 11C76.89 8.01 64.17 3.08 60.4 3.08C56.9 3.08 55.86 7.62 51.7 7.62C47.68 7.62 44.69 4.25 40.93 4.25C37.32 4.25 34.96 6.71 33.15 11.77C33.15 11.77 28.08 26.06 27.43 28.13C27.33 28.51 27.28 28.9 27.29 29.3C27.29 34.85 49.16 53.05 78.47 53.05M98.06 46.18C99.11 51.11 99.11 51.63 99.11 52.28C99.11 60.71 89.63 65.39 77.17 65.39C48.96 65.38 24.33 48.9 24.33 38C24.32 36.48 24.63 34.98 25.23 33.59C15.11 34.1 2 35.92 2 47.47C2 66.42 46.91 89.78 82.47 89.78C109.73 89.78 116.61 77.45 116.61 67.72C116.61 60.06 109.99 51.36 98.05 46.17" id="hH88A7ePS"></path><path d="M99.25 46.42C100.29 51.35 100.29 51.87 100.29 52.52C100.29 60.95 90.82 65.63 78.36 65.63C50.17 65.63 25.53 49.15 25.53 38.25C25.53 36.73 25.84 35.23 26.44 33.84C26.66 33.29 28.42 28.93 28.64 28.38C28.53 28.76 28.48 29.15 28.49 29.54C28.49 35.09 50.37 53.3 79.67 53.3C87.2 53.3 98.1 51.75 98.1 42.79C98.12 42.1 98.06 41.41 97.91 40.73C98.18 41.87 98.98 45.28 99.25 46.42Z" id="b6OxCuoxEQ"></path><path d="M351.96 58.9C351.96 66.06 356.27 69.54 364.12 69.54C366.54 69.48 368.94 69.14 371.28 68.53C371.28 67.7 371.28 61.06 371.28 60.23C369.78 60.7 368.22 60.94 366.65 60.93C363.42 60.93 362.22 59.92 362.22 56.88C362.22 56.03 362.22 51.79 362.22 44.15L371.59 44.15L371.59 35.6L362.22 35.6L362.22 24.76L351.99 26.98L351.99 35.6L345.2 35.6L345.2 44.15L351.97 44.15C351.97 52.02 351.96 56.93 351.96 58.9ZM320.05 59.09C320.05 56.88 322.27 55.8 325.63 55.8C327.68 55.81 329.72 56.07 331.71 56.56C331.71 56.99 331.71 60.43 331.71 60.86C329.75 61.93 327.55 62.48 325.33 62.45C322.04 62.45 320.07 61.18 320.07 59.09M323.2 69.67C326.81 69.67 329.73 68.91 332.45 67.07C332.45 67.21 332.45 67.88 332.45 69.1L342.58 69.1C342.58 56.22 342.58 49.06 342.58 47.63C342.58 39.46 337.07 34.99 327.89 34.99C322.76 34.99 317.69 36.19 312.24 38.66C312.6 39.41 315.54 45.44 315.91 46.2C319.84 44.55 323.13 43.53 326.04 43.53C330.26 43.53 332.44 45.18 332.44 48.54C332.44 48.7 332.44 50.02 332.44 50.18C329.96 49.54 327.4 49.22 324.84 49.23C316.22 49.23 311.03 52.84 311.03 59.3C311.03 65.19 315.72 69.68 323.19 69.68M267.53 69.12L278.42 69.12L278.42 51.75L296.66 51.75L296.66 69.1L307.55 69.1L307.55 24.77L296.68 24.77L296.68 41.81L278.45 41.81L278.45 24.77L267.56 24.77L267.53 69.12ZM226.05 52.32C226.05 47.5 229.85 43.83 234.86 43.83C237.46 43.77 240 44.7 241.95 46.43C241.95 47.6 241.95 56.95 241.95 58.12C240.03 59.91 237.48 60.87 234.86 60.78C229.92 60.78 226.05 57.11 226.05 52.3M242.07 69.08L252.21 69.08L252.21 22.56L241.97 24.77C241.97 32.33 241.97 36.54 241.97 37.38C239.37 35.9 236.42 35.13 233.42 35.16C223.67 35.16 216.01 42.69 216.01 52.32C215.88 61.71 223.4 69.43 232.79 69.56C232.89 69.56 232.99 69.56 233.09 69.56C236.32 69.57 239.47 68.55 242.07 66.65C242.07 66.97 242.07 67.78 242.07 69.08ZM195.6 43.37C198.83 43.37 201.55 45.46 202.63 48.68C201.23 48.68 190.05 48.68 188.65 48.68C189.66 45.33 192.2 43.37 195.62 43.37M178.31 52.38C178.31 62.13 186.29 69.73 196.54 69.73C202.18 69.73 206.3 68.21 210.54 64.66C209.86 64.06 204.44 59.24 203.76 58.64C202.18 60.29 199.84 61.18 197.06 61.18C193.48 61.28 190.2 59.16 188.82 55.86C190.41 55.86 198.37 55.86 212.69 55.86C212.69 54.34 212.69 53.5 212.69 53.33C212.69 42.69 205.54 35.03 195.79 35.03C186.29 34.89 178.47 42.47 178.33 51.97C178.32 52.11 178.32 52.24 178.32 52.38M160.65 34.08C164.26 34.08 166.28 36.36 166.28 39.09C166.28 41.81 164.25 44.09 160.65 44.09C159.93 44.09 156.34 44.09 149.88 44.09L149.88 34.08C155.62 34.08 159.21 34.08 160.65 34.08ZM138.97 69.1L149.86 69.1L149.86 52.95L158.15 52.95L166.52 69.1L178.67 69.1C172.82 58.46 169.57 52.55 168.92 51.37C173.99 49.31 177.3 44.37 177.28 38.89C177.28 30.91 171.01 24.77 161.62 24.77C160.11 24.77 152.57 24.77 138.99 24.77L138.97 69.1Z" id="ajv4IudZ0"></path></defs><g><g><g><use xlink:href="#ffFGjZwq6" opacity="1" fill="#000000" fill-opacity="1"></use><g><use xlink:href="#ffFGjZwq6" opacity="1" fill-opacity="0" stroke="#000000" stroke-width="1" stroke-opacity="0"></use></g></g><g><use xlink:href="#e554g3sJuj" opacity="1" fill="#000000" fill-opacity="1"></use><g><use xlink:href="#e554g3sJuj" opacity="1" fill-opacity="0" stroke="#000000" stroke-width="1" stroke-opacity="0"></use></g></g><g><use xlink:href="#b167mnrDp" opacity="1" fill="#000000" fill-opacity="1"></use><g><use xlink:href="#b167mnrDp" opacity="1" fill-opacity="0" stroke="#000000" stroke-width="1" stroke-opacity="0"></use></g></g><g><use xlink:href="#cluGz7CdC" opacity="1" fill="#000000" fill-opacity="1"></use><g><use xlink:href="#cluGz7CdC" opacity="1" fill-opacity="0" stroke="#000000" stroke-width="1" stroke-opacity="0"></use></g></g><g><use xlink:href="#aU6ggiW3t" opacity="1" fill="#000000" fill-opacity="1"></use><g><use xlink:href="#aU6ggiW3t" opacity="1" fill-opacity="0" stroke="#000000" stroke-width="1" stroke-opacity="0"></use></g></g><g><use xlink:href="#a2WRH1XVFJ" opacity="1" fill="#000000" fill-opacity="1"></use><g><use xlink:href="#a2WRH1XVFJ" opacity="1" fill-opacity="0" stroke="#000000" stroke-width="1" stroke-opacity="0"></use></g></g><g><use xlink:href="#cZHbsq3br" opacity="1" fill="#000000" fill-opacity="1"></use><g><use xlink:href="#cZHbsq3br" opacity="1" fill-opacity="0" stroke="#000000" stroke-width="1" stroke-opacity="0"></use></g></g><g><use xlink:href="#c59BQl4MQ" opacity="1" fill="#000000" fill-opacity="1"></use><g><use xlink:href="#c59BQl4MQ" opacity="1" fill-opacity="0" stroke="#000000" stroke-width="1" stroke-opacity="0"></use></g></g><g><use xlink:href="#ic98KlEGv" opacity="1" fill="#000000" fill-opacity="1"></use><g><use xlink:href="#ic98KlEGv" opacity="1" fill-opacity="0" stroke="#000000" stroke-width="1" stroke-opacity="0"></use></g></g><g><use xlink:href="#c3rDYqlC2T" opacity="1" fill="#000000" fill-opacity="1"></use><g><use xlink:href="#c3rDYqlC2T" opacity="1" fill-opacity="0" stroke="#000000" stroke-width="1" stroke-opacity="0"></use></g></g><g><use xlink:href="#aBGCWvyKO" opacity="1" fill="#000000" fill-opacity="1"></use><g><use xlink:href="#aBGCWvyKO" opacity="1" fill-opacity="0" stroke="#000000" stroke-width="1" stroke-opacity="0"></use></g></g><g><use xlink:href="#c64YtJA9yC" opacity="1" fill="#000000" fill-opacity="1"></use><g><use xlink:href="#c64YtJA9yC" opacity="1" fill-opacity="0" stroke="#000000" stroke-width="1" stroke-opacity="0"></use></g></g><g><use xlink:href="#cvItR63" opacity="1" fill="#000000" fill-opacity="1"></use><g><use xlink:href="#cvItR63" opacity="1" fill-opacity="0" stroke="#000000" stroke-width="1" stroke-opacity="0"></use></g></g><g><use xlink:href="#b19jCMUKZf" opacity="1" fill="#000000" fill-opacity="1"></use><g><use xlink:href="#b19jCMUKZf" opacity="1" fill-opacity="0" stroke="#000000" stroke-width="1" stroke-opacity="0"></use></g></g><g><use xlink:href="#i2fLbStUT" opacity="1" fill="#000000" fill-opacity="1"></use><g><use xlink:href="#i2fLbStUT" opacity="1" fill-opacity="0" stroke="#000000" stroke-width="1" stroke-opacity="0"></use></g></g><g><use xlink:href="#f4HxK07QgS" opacity="1" fill="#000000" fill-opacity="1"></use><g><use xlink:href="#f4HxK07QgS" opacity="1" fill-opacity="0" stroke="#000000" stroke-width="1" stroke-opacity="0"></use></g></g><g><use xlink:href="#a3wv4pOVr" opacity="1" fill="#000000" fill-opacity="1"></use><g><use xlink:href="#a3wv4pOVr" opacity="1" fill-opacity="0" stroke="#000000" stroke-width="1" stroke-opacity="0"></use></g></g><g><use xlink:href="#bPZwqOB6s" opacity="1" fill="#000000" fill-opacity="1"></use><g><use xlink:href="#bPZwqOB6s" opacity="1" fill-opacity="0" stroke="#000000" stroke-width="1" stroke-opacity="0"></use></g></g><g><use xlink:href="#a5uzK3FPi" opacity="1" fill="#000000" fill-opacity="1"></use><g><use xlink:href="#a5uzK3FPi" opacity="1" fill-opacity="0" stroke="#000000" stroke-width="1" stroke-opacity="0"></use></g></g><g><use xlink:href="#e1HTUnUNp" opacity="1" fill="#000000" fill-opacity="1"></use><g><use xlink:href="#e1HTUnUNp" opacity="1" fill-opacity="0" stroke="#000000" stroke-width="1" stroke-opacity="0"></use></g></g><g><use xlink:href="#b3GbegyIX4" opacity="1" fill="#000000" fill-opacity="1"></use><g><use xlink:href="#b3GbegyIX4" opacity="1" fill-opacity="0" stroke="#000000" stroke-width="1" stroke-opacity="0"></use></g></g><g><use xlink:href="#aV4WR1Bbb" opacity="1" fill="#000000" fill-opacity="1"></use><g><use xlink:href="#aV4WR1Bbb" opacity="1" fill-opacity="0" stroke="#000000" stroke-width="1" stroke-opacity="0"></use></g></g><g><use xlink:href="#a7jFWJrNV" opacity="1" fill="#000000" fill-opacity="1"></use><g><use xlink:href="#a7jFWJrNV" opacity="1" fill-opacity="0" stroke="#000000" stroke-width="1" stroke-opacity="0"></use></g></g><g><use xlink:href="#az1Caf5YW" opacity="1" fill="#000000" fill-opacity="1"></use><g><use xlink:href="#az1Caf5YW" opacity="1" fill-opacity="0" stroke="#000000" stroke-width="1" stroke-opacity="0"></use></g></g><g><use xlink:href="#a1F2xfNijO" opacity="1" fill="#000000" fill-opacity="1"></use><g><use xlink:href="#a1F2xfNijO" opacity="1" fill-opacity="0" stroke="#000000" stroke-width="1" stroke-opacity="0"></use></g></g><g><use xlink:href="#b9q6Vm1hn2" opacity="1" fill="#000000" fill-opacity="1"></use><g><use xlink:href="#b9q6Vm1hn2" opacity="1" fill-opacity="0" stroke="#000000" stroke-width="1" stroke-opacity="0"></use></g></g><g><use xlink:href="#i2dvSSsrh" opacity="1" fill="#000000" fill-opacity="1"></use><g><use xlink:href="#i2dvSSsrh" opacity="1" fill-opacity="0" stroke="#000000" stroke-width="1" stroke-opacity="0"></use></g></g><g><use xlink:href="#a2Dm0dhInM" opacity="1" fill="#000000" fill-opacity="1"></use><g><use xlink:href="#a2Dm0dhInM" opacity="1" fill-opacity="0" stroke="#000000" stroke-width="1" stroke-opacity="0"></use></g></g><g><use xlink:href="#b3vkHmROx" opacity="1" fill="#000000" fill-opacity="1"></use><g><use xlink:href="#b3vkHmROx" opacity="1" fill-opacity="0" stroke="#000000" stroke-width="1" stroke-opacity="0"></use></g></g><g><use xlink:href="#a3Cl5yq9Nk" opacity="1" fill="#000000" fill-opacity="1"></use><g><use xlink:href="#a3Cl5yq9Nk" opacity="1" fill-opacity="0" stroke="#000000" stroke-width="1" stroke-opacity="0"></use></g></g><g><use xlink:href="#bLu7yFrmf" opacity="1" fill="#000000" fill-opacity="1"></use><g><use xlink:href="#bLu7yFrmf" opacity="1" fill-opacity="0" stroke="#000000" stroke-width="1" stroke-opacity="0"></use></g></g><g><use xlink:href="#b1WjpnmXI4" opacity="1" fill="#000000" fill-opacity="1"></use><g><use xlink:href="#b1WjpnmXI4" opacity="1" fill-opacity="0" stroke="#000000" stroke-width="1" stroke-opacity="0"></use></g></g><g><use xlink:href="#g4BM63AGvh" opacity="1" fill="#000000" fill-opacity="1"></use><g><use xlink:href="#g4BM63AGvh" opacity="1" fill-opacity="0" stroke="#000000" stroke-width="1" stroke-opacity="0"></use></g></g><g><use xlink:href="#a1t0BgWgyw" opacity="1" fill="#000000" fill-opacity="1"></use><g><use xlink:href="#a1t0BgWgyw" opacity="1" fill-opacity="0" stroke="#000000" stroke-width="1" stroke-opacity="0"></use></g></g><g><use xlink:href="#d11cff5nu" opacity="1" fill="#000000" fill-opacity="1"></use><g><use xlink:href="#d11cff5nu" opacity="1" fill-opacity="0" stroke="#000000" stroke-width="1" stroke-opacity="0"></use></g></g><g><use xlink:href="#cjTjFwxtT" opacity="1" fill="#000000" fill-opacity="1"></use><g><use xlink:href="#cjTjFwxtT" opacity="1" fill-opacity="0" stroke="#000000" stroke-width="1" stroke-opacity="0"></use></g></g><g><use xlink:href="#hH88A7ePS" opacity="1" fill="#ee0000" fill-opacity="1"></use><g><use xlink:href="#hH88A7ePS" opacity="1" fill-opacity="0" stroke="#000000" stroke-width="1" stroke-opacity="0"></use></g></g><g><use xlink:href="#b6OxCuoxEQ" opacity="1" fill="#000000" fill-opacity="1"></use><g><use xlink:href="#b6OxCuoxEQ" opacity="1" fill-opacity="0" stroke="#000000" stroke-width="1" stroke-opacity="0"></use></g></g><g><use xlink:href="#ajv4IudZ0" opacity="1" fill="#000000" fill-opacity="1"></use><g><use xlink:href="#ajv4IudZ0" opacity="1" fill-opacity="0" stroke="#000000" stroke-width="1" stroke-opacity="0"></use></g></g></g></g></svg>